<svg xmlns="http://www.w3.org/2000/svg" x="0px" y="0px" width="100" height="100" viewBox="0,0,256,256">
<g fill="#003049" fill-rule="nonzero" stroke="none" stroke-width="1" stroke-linecap="butt" stroke-linejoin="miter" stroke-miterlimit="10" stroke-dasharray="" stroke-dashoffset="0" font-family="none" font-weight="none" font-size="none" text-anchor="none" style="mix-blend-mode: normal"><g transform="scale(5.12,5.12)"><path d="M5,2c-1.64453,0 -3,1.35547 -3,3v30c0,1.64453 1.35547,3 3,3h14v2h-9c-0.03125,0 -0.0625,0 -0.09375,0c-0.26953,0.02734 -0.51953,0.16016 -0.6875,0.375l-5,6c-0.24219,0.30078 -0.28906,0.71094 -0.12109,1.05859c0.16797,0.34766 0.51953,0.56641 0.90234,0.56641h40c0.38281,0 0.73438,-0.21875 0.90234,-0.56641c0.16797,-0.34766 0.12109,-0.75781 -0.12109,-1.05859l-5,-6c-0.19141,-0.23828 -0.47656,-0.375 -0.78125,-0.375h-9v-2h14c1.64453,0 3,-1.35547 3,-3v-30c0,-1.64453 -1.35547,-3 -3,-3zM5,4h40c0.55469,0 1,0.44531 1,1v30c0,0.55469 -0.44531,1 -1,1h-40c-0.55469,0 -1,-0.44531 -1,-1v-30c0,-0.55469 0.44531,-1 1,-1zM6,6v28h38v-28zM8,8h34v24h-34zM19.28125,11.28125l-8,8l-0.6875,0.71875l0.6875,0.71875l8,8l1.4375,-1.4375l-7.28125,-7.28125l7.28125,-7.28125zM30.71875,11.28125l-1.4375,1.4375l7.28125,7.28125l-7.28125,7.28125l1.4375,1.4375l8,-8l0.6875,-0.71875l-0.6875,-0.71875zM21,38h8v4h-8zM10.46875,42h8.53125v2h12v-2h8.53125l3.34375,4h-35.75z" id="webdev"></path></g></g>
</svg>